<svg xmlns="http://www.w3.org/2000/svg" viewBox="0 0 100 100" preserveAspectRatio="xMidYMid" width="96" height="96" style="shape-rendering: auto; display: block; background: transparent;" xmlns:xlink="http://www.w3.org/1999/xlink"><g><g transform="rotate(0 50 50)">
  <rect fill="#f47e60" height="16" width="6" ry="8" rx="3" y="22" x="47">
    <animate repeatCount="indefinite" begin="-0.9285714285714286s" dur="1s" keyTimes="0;1" values="1;0" attributeName="opacity"></animate>
  </rect>
</g><g transform="rotate(25.714285714285715 50 50)">
  <rect fill="#f47e60" height="16" width="6" ry="8" rx="3" y="22" x="47">
    <animate repeatCount="indefinite" begin="-0.8571428571428571s" dur="1s" keyTimes="0;1" values="1;0" attributeName="opacity"></animate>
  </rect>
</g><g transform="rotate(51.42857142857143 50 50)">
  <rect fill="#f47e60" height="16" width="6" ry="8" rx="3" y="22" x="47">
    <animate repeatCount="indefinite" begin="-0.7857142857142857s" dur="1s" keyTimes="0;1" values="1;0" attributeName="opacity"></animate>
  </rect>
</g><g transform="rotate(77.14285714285714 50 50)">
  <rect fill="#f47e60" height="16" width="6" ry="8" rx="3" y="22" x="47">
    <animate repeatCount="indefinite" begin="-0.7142857142857143s" dur="1s" keyTimes="0;1" values="1;0" attributeName="opacity"></animate>
  </rect>
</g><g transform="rotate(102.85714285714286 50 50)">
  <rect fill="#f47e60" height="16" width="6" ry="8" rx="3" y="22" x="47">
    <animate repeatCount="indefinite" begin="-0.6428571428571429s" dur="1s" keyTimes="0;1" values="1;0" attributeName="opacity"></animate>
  </rect>
</g><g transform="rotate(128.57142857142858 50 50)">
  <rect fill="#f47e60" height="16" width="6" ry="8" rx="3" y="22" x="47">
    <animate repeatCount="indefinite" begin="-0.5714285714285714s" dur="1s" keyTimes="0;1" values="1;0" attributeName="opacity"></animate>
  </rect>
</g><g transform="rotate(154.28571428571428 50 50)">
  <rect fill="#f47e60" height="16" width="6" ry="8" rx="3" y="22" x="47">
    <animate repeatCount="indefinite" begin="-0.5s" dur="1s" keyTimes="0;1" values="1;0" attributeName="opacity"></animate>
  </rect>
</g><g transform="rotate(180 50 50)">
  <rect fill="#f47e60" height="16" width="6" ry="8" rx="3" y="22" x="47">
    <animate repeatCount="indefinite" begin="-0.42857142857142855s" dur="1s" keyTimes="0;1" values="1;0" attributeName="opacity"></animate>
  </rect>
</g><g transform="rotate(205.71428571428572 50 50)">
  <rect fill="#f47e60" height="16" width="6" ry="8" rx="3" y="22" x="47">
    <animate repeatCount="indefinite" begin="-0.35714285714285715s" dur="1s" keyTimes="0;1" values="1;0" attributeName="opacity"></animate>
  </rect>
</g><g transform="rotate(231.42857142857142 50 50)">
  <rect fill="#f47e60" height="16" width="6" ry="8" rx="3" y="22" x="47">
    <animate repeatCount="indefinite" begin="-0.2857142857142857s" dur="1s" keyTimes="0;1" values="1;0" attributeName="opacity"></animate>
  </rect>
</g><g transform="rotate(257.14285714285717 50 50)">
  <rect fill="#f47e60" height="16" width="6" ry="8" rx="3" y="22" x="47">
    <animate repeatCount="indefinite" begin="-0.21428571428571427s" dur="1s" keyTimes="0;1" values="1;0" attributeName="opacity"></animate>
  </rect>
</g><g transform="rotate(282.85714285714283 50 50)">
  <rect fill="#f47e60" height="16" width="6" ry="8" rx="3" y="22" x="47">
    <animate repeatCount="indefinite" begin="-0.14285714285714285s" dur="1s" keyTimes="0;1" values="1;0" attributeName="opacity"></animate>
  </rect>
</g><g transform="rotate(308.57142857142856 50 50)">
  <rect fill="#f47e60" height="16" width="6" ry="8" rx="3" y="22" x="47">
    <animate repeatCount="indefinite" begin="-0.07142857142857142s" dur="1s" keyTimes="0;1" values="1;0" attributeName="opacity"></animate>
  </rect>
</g><g transform="rotate(334.2857142857143 50 50)">
  <rect fill="#f47e60" height="16" width="6" ry="8" rx="3" y="22" x="47">
    <animate repeatCount="indefinite" begin="0s" dur="1s" keyTimes="0;1" values="1;0" attributeName="opacity"></animate>
  </rect>
</g><g></g></g><!-- [ldio] generated by https://loading.io --></svg>